<?xml version="1.0" encoding="UTF-8" standalone="no" ?>
<!DOCTYPE svg PUBLIC "-//W3C//DTD SVG 1.1//EN" "http://www.w3.org/Graphics/SVG/1.1/DTD/svg11.dtd">
<svg xmlns="http://www.w3.org/2000/svg" xmlns:xlink="http://www.w3.org/1999/xlink" version="1.1" width="100" height="100" viewBox="0 0 100 100" xml:space="preserve">
<desc>Created with Fabric.js 3.6.6</desc>
<defs>
</defs>
<g transform="matrix(0.81 0 0 0.81 19.38 19.38)"  >
<g style=""   >
		<g transform="matrix(1 0 0 1 0 0)"  >
<rect style="stroke: none; stroke-width: 1; stroke-dasharray: none; stroke-linecap: butt; stroke-dashoffset: 0; stroke-linejoin: miter; stroke-miterlimit: 4; fill: rgb(255,255,255); fill-rule: nonzero; opacity: 1;"  x="-24" y="-24" rx="8.88889" ry="8.88889" width="48" height="48" />
</g>
		<g transform="matrix(1 0 0 1 -1.23 -0.7)"  >
<linearGradient id="SVGID_11" gradientUnits="userSpaceOnUse" gradientTransform="matrix(1 0 0 1 0 0)"  x1="8" y1="35.5" x2="38.0109" y2="10.5484">
<stop offset="0%" style="stop-color:rgb(152,159,255);stop-opacity: 1"/>
<stop offset="100%" style="stop-color:rgb(41,162,255);stop-opacity: 1"/>
</linearGradient>
<path style="stroke: none; stroke-width: 1; stroke-dasharray: none; stroke-linecap: butt; stroke-dashoffset: 0; stroke-linejoin: miter; stroke-miterlimit: 4; fill: url(#SVGID_11); fill-rule: nonzero; opacity: 1;"  transform=" translate(-22.77, -23.3)" d="M 11.26 30 H 7.9 L 13.76 16.6 H 18.04 L 23.94 30 H 20.5 L 19.24 27.04 H 12.54 L 11.26 30 Z M 14.96 21.42 L 13.7 24.34 H 18.08 L 16.82 21.42 L 16 19.34 H 15.78 L 14.96 21.42 Z M 27.6398 30 H 24.6398 V 16.6 H 27.6398 V 21.92 H 34.6398 V 16.6 H 37.6398 V 30 H 34.6398 V 24.62 H 27.6398 V 30 Z" stroke-linecap="round" />
</g>
</g>
</g>
<g transform="matrix(1 0 0 1 258 54)"  >
<path style="stroke: rgb(255,255,255); stroke-width: 7; stroke-dasharray: none; stroke-linecap: round; stroke-dashoffset: 0; stroke-linejoin: round; stroke-miterlimit: 10; fill: none; fill-rule: nonzero; opacity: 1;"  transform=" translate(-258, -54)" d="M 257.993 54 L 258.007 54" stroke-linecap="round" />
</g>
<g transform="matrix(1 0 0 1 18.63 20.36)"  >
<path style="stroke: rgb(255,255,255); stroke-width: 7; stroke-dasharray: none; stroke-linecap: round; stroke-dashoffset: 0; stroke-linejoin: round; stroke-miterlimit: 10; fill: none; fill-rule: nonzero; opacity: 1;"  transform=" translate(-18.63, -20.36)" d="M 13.193000000000001 15.200000000000001 Q 13.200000000000001 15.200000000000001 13.400000000000002 15.200000000000001 Q 13.600000000000001 15.200000000000001 13.8 15.200000000000001 Q 14 15.200000000000001 14.600000000000001 15.200000000000001 Q 15.200000000000001 15.200000000000001 15.8 14.8 Q 16.400000000000002 14.4 17.200000000000003 14 Q 18 13.600000000000001 18.8 13 Q 19.6 12.4 20.6 12.2 Q 21.6 12 21.8 12 Q 22 12 20.6 12 Q 19.200000000000003 12 16.6 12.8 Q 14 13.600000000000001 11.8 14.400000000000002 Q 9.600000000000001 15.200000000000001 8.4 15.8 Q 7.2 16.400000000000002 7.4 16.200000000000003 Q 7.6000000000000005 16 8.200000000000001 15.600000000000001 Q 8.8 15.200000000000001 9.4 14.8 Q 10 14.4 11.2 14 Q 12.4 13.600000000000001 13.8 13.200000000000001 Q 15.200000000000001 12.8 15.400000000000002 12.8 Q 15.600000000000001 12.8 15.8 12.8 Q 16 12.8 16.200000000000003 12.8 Q 16.400000000000002 12.8 16.6 13 Q 16.8 13.200000000000001 16.8 14.200000000000001 Q 16.8 15.200000000000001 16 16.6 Q 15.200000000000001 18 14 19.4 Q 12.8 20.8 11.4 21.8 Q 10 22.8 9.4 23.4 Q 8.8 24 9 23.6 Q 9.200000000000001 23.200000000000003 10.600000000000001 21.800000000000004 Q 12 20.400000000000002 15.200000000000001 18.6 Q 18.400000000000002 16.8 20.400000000000002 16 Q 22.400000000000002 15.200000000000001 23.200000000000003 14.8 Q 24 14.4 24.200000000000003 14.4 Q 24.400000000000002 14.4 23.6 15 Q 22.8 15.600000000000001 20.200000000000003 17 Q 17.6 18.400000000000002 14.8 19.6 Q 12 20.8 10 21.6 Q 8 22.400000000000002 7.6 22.400000000000002 Q 7.2 22.400000000000002 7.4 21.800000000000004 Q 7.6000000000000005 21.200000000000003 9.4 20 Q 11.200000000000001 18.8 13.400000000000002 17.4 Q 15.600000000000001 16 18.200000000000003 15 Q 20.8 14 22.6 13.600000000000001 Q 24.400000000000002 13.200000000000001 24.6 13.200000000000001 Q 24.8 13.200000000000001 25 13.200000000000001 Q 25.200000000000003 13.200000000000001 25.400000000000002 13.200000000000001 Q 25.6 13.200000000000001 25.6 13.600000000000001 Q 25.6 14 25.6 14.4 Q 25.6 14.8 24.6 16.8 Q 23.6 18.8 23 20 Q 22.400000000000002 21.200000000000003 21.6 22 Q 20.8 22.8 20.6 22.8 Q 20.400000000000002 22.8 20.400000000000002 22.6 Q 20.400000000000002 22.400000000000002 20.6 22 Q 20.8 21.6 21.6 20.8 Q 22.400000000000002 20 23.800000000000004 18.6 Q 25.200000000000003 17.2 26.200000000000003 16.6 Q 27.200000000000003 16 27.6 15.8 Q 28 15.600000000000001 28.4 15.600000000000001 Q 28.8 15.600000000000001 28.6 15.8 Q 28.400000000000002 16 27.400000000000002 16.8 Q 26.400000000000002 17.6 24.800000000000004 18.8 Q 23.200000000000003 20 22 20.8 Q 20.8 21.6 20.6 21.8 Q 20.400000000000002 22 20.6 22 Q 20.8 22 21.8 21.200000000000003 Q 22.8 20.400000000000002 24 19.400000000000002 Q 25.200000000000003 18.400000000000002 26.200000000000003 17.400000000000002 Q 27.200000000000003 16.400000000000002 27.6 16.200000000000003 Q 28 16 28 16.4 Q 28 16.8 27.6 17.4 Q 27.200000000000003 18 26.400000000000002 19 Q 25.6 20 25.400000000000002 20.6 Q 25.200000000000003 21.200000000000003 25.200000000000003 21.400000000000002 Q 25.200000000000003 21.6 25.200000000000003 21.8 Q 25.200000000000003 22 25.6 22 Q 26 22 26.6 22 Q 27.200000000000003 22 27.800000000000004 21.6 Q 28.400000000000002 21.200000000000003 29 20.6 Q 29.6 20 29.8 20 Q 30 20 30 20.6 Q 30 21.200000000000003 30 22.200000000000003 Q 30 23.200000000000003 30 24.200000000000003 Q 30 25.200000000000003 30 26 Q 30 26.8 30 26.200000000000003 Q 30 25.6 30 25.200000000000003 Q 30 24.8 29.6 24.4 Q 29.200000000000003 24 28.400000000000002 22.200000000000003 Q 27.6 20.400000000000002 26.8 20 Q 26 19.6 25.4 19.400000000000002 Q 24.8 19.200000000000003 24.200000000000003 19.200000000000003 Q 23.6 19.200000000000003 22.6 19.400000000000002 Q 21.6 19.6 19.4 20.400000000000002 Q 17.2 21.200000000000003 15.6 21.800000000000004 Q 14 22.400000000000002 13 23 Q 12 23.6 12 23.400000000000002 Q 12 23.200000000000003 12.4 22.800000000000004 Q 12.8 22.400000000000002 13.8 21.800000000000004 Q 14.8 21.200000000000003 15.600000000000001 21 Q 16.400000000000002 20.8 16.6 20.8 Q 16.8 20.8 17 20.8 Q 17.2 20.8 17.2 21 Q 17.2 21.200000000000003 17 22.6 Q 16.8 24 16 25 Q 15.200000000000001 26 14.400000000000002 27 Q 13.600000000000001 28 13.200000000000001 28.200000000000003 Q 12.8 28.400000000000002 12.8 28.6 Q 12.8 28.8 13 28.200000000000003 Q 13.200000000000001 27.6 13.400000000000002 26.8 L 13.607000000000001 25.993" stroke-linecap="round" />
</g>
<g transform="matrix(1.09 0 0 1.09 49.51 20.01)" style=""  >
		<text xml:space="preserve" font-family="'Cormorant Garamond', serif" font-size="18" font-style="normal" style="stroke: rgb(0,0,0); stroke-width: 1; stroke-dasharray: 15 15; stroke-linecap: round; stroke-dashoffset: 0; stroke-linejoin: miter; stroke-miterlimit: 4; fill: rgb(255,136,136); fill-rule: nonzero; opacity: 1; white-space: pre;" ><tspan x="-40" y="5.65" >RP</tspan></text>
</g>
</svg>